<svg width="56" height="80" viewBox="0 0 56 80" fill="none" xmlns="http://www.w3.org/2000/svg">
<g clip-path="url(#clip0_7410_15005)">
<path d="M28 10.1609C31.2063 10.1609 31.5859 10.175 32.8469 10.2312C34.0188 10.2828 34.6516 10.4797 35.0734 10.6438C35.6313 10.8594 36.0344 11.1219 36.4516 11.5391C36.8734 11.9609 37.1313 12.3594 37.3469 12.9172C37.5109 13.3391 37.7078 13.9766 37.7594 15.1437C37.8156 16.4094 37.8297 16.7891 37.8297 19.9906C37.8297 23.1969 37.8156 23.5766 37.7594 24.8375C37.7078 26.0094 37.5109 26.6422 37.3469 27.0641C37.1313 27.6219 36.8688 28.025 36.4516 28.4422C36.0297 28.8641 35.6313 29.1219 35.0734 29.3375C34.6516 29.5016 34.0141 29.6984 32.8469 29.75C31.5813 29.8063 31.2016 29.8203 28 29.8203C24.7938 29.8203 24.4141 29.8063 23.1531 29.75C21.9813 29.6984 21.3484 29.5016 20.9266 29.3375C20.3688 29.1219 19.9656 28.8594 19.5484 28.4422C19.1266 28.0203 18.8688 27.6219 18.6531 27.0641C18.4891 26.6422 18.2922 26.0047 18.2406 24.8375C18.1844 23.5719 18.1703 23.1922 18.1703 19.9906C18.1703 16.7844 18.1844 16.4047 18.2406 15.1437C18.2922 13.9719 18.4891 13.3391 18.6531 12.9172C18.8688 12.3594 19.1313 11.9562 19.5484 11.5391C19.9703 11.1172 20.3688 10.8594 20.9266 10.6438C21.3484 10.4797 21.9859 10.2828 23.1531 10.2312C24.4141 10.175 24.7938 10.1609 28 10.1609ZM28 8C24.7422 8 24.3344 8.01406 23.0547 8.07031C21.7797 8.12656 20.9031 8.33281 20.1438 8.62812C19.3516 8.9375 18.6813 9.34531 18.0156 10.0156C17.3453 10.6812 16.9375 11.3516 16.6281 12.1391C16.3328 12.9031 16.1266 13.775 16.0703 15.05C16.0141 16.3344 16 16.7422 16 20C16 23.2578 16.0141 23.6656 16.0703 24.9453C16.1266 26.2203 16.3328 27.0969 16.6281 27.8563C16.9375 28.6484 17.3453 29.3188 18.0156 29.9844C18.6813 30.65 19.3516 31.0625 20.1391 31.3672C20.9031 31.6625 21.775 31.8687 23.05 31.925C24.3297 31.9812 24.7375 31.9953 27.9953 31.9953C31.2531 31.9953 31.6609 31.9812 32.9406 31.925C34.2156 31.8687 35.0922 31.6625 35.8516 31.3672C36.6391 31.0625 37.3094 30.65 37.975 29.9844C38.6406 29.3188 39.0531 28.6484 39.3578 27.8609C39.6531 27.0969 39.8594 26.225 39.9156 24.95C39.9719 23.6703 39.9859 23.2625 39.9859 20.0047C39.9859 16.7469 39.9719 16.3391 39.9156 15.0594C39.8594 13.7844 39.6531 12.9078 39.3578 12.1484C39.0625 11.3516 38.6547 10.6812 37.9844 10.0156C37.3188 9.35 36.6484 8.9375 35.8609 8.63281C35.0969 8.3375 34.225 8.13125 32.95 8.075C31.6656 8.01406 31.2578 8 28 8Z" fill="white"/>
<path d="M28 13.8359C24.5969 13.8359 21.8359 16.5969 21.8359 20C21.8359 23.4031 24.5969 26.1641 28 26.1641C31.4031 26.1641 34.1641 23.4031 34.1641 20C34.1641 16.5969 31.4031 13.8359 28 13.8359ZM28 23.9984C25.7922 23.9984 24.0016 22.2078 24.0016 20C24.0016 17.7922 25.7922 16.0016 28 16.0016C30.2078 16.0016 31.9984 17.7922 31.9984 20C31.9984 22.2078 30.2078 23.9984 28 23.9984Z" fill="white"/>
<path d="M35.8469 13.5924C35.8469 14.3893 35.2 15.0314 34.4078 15.0314C33.6109 15.0314 32.9688 14.3846 32.9688 13.5924C32.9688 12.7955 33.6156 12.1533 34.4078 12.1533C35.2 12.1533 35.8469 12.8002 35.8469 13.5924Z" fill="white"/>
</g>
<g opacity="0.5" clip-path="url(#clip1_7410_15005)">
<path d="M28 50.1609C31.2063 50.1609 31.5859 50.175 32.8469 50.2312C34.0188 50.2828 34.6516 50.4797 35.0734 50.6438C35.6313 50.8594 36.0344 51.1219 36.4516 51.5391C36.8734 51.9609 37.1313 52.3594 37.3469 52.9172C37.5109 53.3391 37.7078 53.9766 37.7594 55.1437C37.8156 56.4094 37.8297 56.7891 37.8297 59.9906C37.8297 63.1969 37.8156 63.5766 37.7594 64.8375C37.7078 66.0094 37.5109 66.6422 37.3469 67.0641C37.1313 67.6219 36.8688 68.025 36.4516 68.4422C36.0297 68.8641 35.6313 69.1219 35.0734 69.3375C34.6516 69.5016 34.0141 69.6984 32.8469 69.75C31.5813 69.8063 31.2016 69.8203 28 69.8203C24.7938 69.8203 24.4141 69.8063 23.1531 69.75C21.9813 69.6984 21.3484 69.5016 20.9266 69.3375C20.3688 69.1219 19.9656 68.8594 19.5484 68.4422C19.1266 68.0203 18.8688 67.6219 18.6531 67.0641C18.4891 66.6422 18.2922 66.0047 18.2406 64.8375C18.1844 63.5719 18.1703 63.1922 18.1703 59.9906C18.1703 56.7844 18.1844 56.4047 18.2406 55.1437C18.2922 53.9719 18.4891 53.3391 18.6531 52.9172C18.8688 52.3594 19.1313 51.9562 19.5484 51.5391C19.9703 51.1172 20.3688 50.8594 20.9266 50.6438C21.3484 50.4797 21.9859 50.2828 23.1531 50.2312C24.4141 50.175 24.7938 50.1609 28 50.1609ZM28 48C24.7422 48 24.3344 48.0141 23.0547 48.0703C21.7797 48.1266 20.9031 48.3328 20.1438 48.6281C19.3516 48.9375 18.6813 49.3453 18.0156 50.0156C17.3453 50.6812 16.9375 51.3516 16.6281 52.1391C16.3328 52.9031 16.1266 53.775 16.0703 55.05C16.0141 56.3344 16 56.7422 16 60C16 63.2578 16.0141 63.6656 16.0703 64.9453C16.1266 66.2203 16.3328 67.0969 16.6281 67.8563C16.9375 68.6484 17.3453 69.3188 18.0156 69.9844C18.6813 70.65 19.3516 71.0625 20.1391 71.3672C20.9031 71.6625 21.775 71.8687 23.05 71.925C24.3297 71.9812 24.7375 71.9953 27.9953 71.9953C31.2531 71.9953 31.6609 71.9812 32.9406 71.925C34.2156 71.8687 35.0922 71.6625 35.8516 71.3672C36.6391 71.0625 37.3094 70.65 37.975 69.9844C38.6406 69.3188 39.0531 68.6484 39.3578 67.8609C39.6531 67.0969 39.8594 66.225 39.9156 64.95C39.9719 63.6703 39.9859 63.2625 39.9859 60.0047C39.9859 56.7469 39.9719 56.3391 39.9156 55.0594C39.8594 53.7844 39.6531 52.9078 39.3578 52.1484C39.0625 51.3516 38.6547 50.6812 37.9844 50.0156C37.3188 49.35 36.6484 48.9375 35.8609 48.6328C35.0969 48.3375 34.225 48.1313 32.95 48.075C31.6656 48.0141 31.2578 48 28 48Z" fill="white"/>
<path d="M28 53.8359C24.5969 53.8359 21.8359 56.5969 21.8359 60C21.8359 63.4031 24.5969 66.1641 28 66.1641C31.4031 66.1641 34.1641 63.4031 34.1641 60C34.1641 56.5969 31.4031 53.8359 28 53.8359ZM28 63.9984C25.7922 63.9984 24.0016 62.2078 24.0016 60C24.0016 57.7922 25.7922 56.0016 28 56.0016C30.2078 56.0016 31.9984 57.7922 31.9984 60C31.9984 62.2078 30.2078 63.9984 28 63.9984Z" fill="white"/>
<path d="M35.8469 53.5924C35.8469 54.3893 35.2 55.0314 34.4078 55.0314C33.6109 55.0314 32.9688 54.3846 32.9688 53.5924C32.9688 52.7955 33.6156 52.1533 34.4078 52.1533C35.2 52.1533 35.8469 52.8002 35.8469 53.5924Z" fill="white"/>
</g>
<defs>
<clipPath id="clip0_7410_15005">
<rect width="24" height="24" fill="white" transform="translate(16 8)"/>
</clipPath>
<clipPath id="clip1_7410_15005">
<rect width="24" height="24" fill="white" transform="translate(16 48)"/>
</clipPath>
</defs>
</svg>
