<svg width="24" height="24" viewBox="0 0 24 24" fill="none" xmlns="http://www.w3.org/2000/svg">
<g clip-path="url(#clip0_7985_22194)">
<path d="M6.3387 23.3671L9.30303 17.6725C7.50848 16.5315 6.22291 14.7426 5.71374 12.6779C5.20458 10.6132 5.51104 8.43163 6.56935 6.5871C7.62766 4.74257 9.35636 3.37706 11.3958 2.77464C13.4353 2.17221 15.6285 2.37925 17.5192 3.35269C19.4099 4.32612 20.8525 5.991 21.5469 8.00099C22.2414 10.011 22.1342 12.2113 21.2476 14.1443C20.3611 16.0773 18.7635 17.594 16.7871 18.379C14.8107 19.1641 12.6078 19.1569 10.6365 18.3591L7.67222 24.0537L6.3387 23.3671ZM20.1565 8.65735C19.7493 7.38594 18.9742 6.26382 17.9293 5.4329C16.8844 4.60197 15.6165 4.09956 14.2861 3.9892C12.9556 3.87884 11.6223 4.16548 10.4548 4.81288C9.28724 5.46028 8.33789 6.43935 7.72678 7.6263C7.11568 8.81324 6.87027 10.1547 7.02158 11.4812C7.1729 12.8076 7.71415 14.0594 8.57688 15.0782C9.43962 16.097 10.5851 16.8371 11.8685 17.2049C13.1518 17.5727 14.5154 17.5517 15.7868 17.1445C17.4906 16.5968 18.9074 15.3956 19.7266 13.8045C20.5458 12.2134 20.7004 10.3623 20.1565 8.65735Z" fill="black"/>
</g>
<defs>
<clipPath id="clip0_7985_22194">
<rect width="24" height="24" fill="white"/>
</clipPath>
</defs>
</svg>
