<svg width="56" height="80" viewBox="0 0 56 80" fill="none" xmlns="http://www.w3.org/2000/svg">
<path d="M21.6272 11.3055C24.2067 13.2695 26.9814 17.2516 28.0001 19.3887C29.0188 17.2518 31.7933 13.2694 34.373 11.3055C36.2342 9.88837 39.25 8.79188 39.25 12.281C39.25 12.9778 38.8561 18.1347 38.625 18.9718C37.8219 21.8825 34.8953 22.6249 32.2921 22.1756C36.8425 22.961 38.0001 25.5626 35.5001 28.1642C30.7523 33.1051 28.6761 26.9245 28.1438 25.3408C28.0463 25.0505 28.0007 24.9146 28 25.0301C27.9993 24.9146 27.9537 25.0504 27.8562 25.3408C27.3242 26.9245 25.248 33.1053 20.4999 28.1642C17.9999 25.5626 19.1574 22.9608 23.7079 22.1756C21.1046 22.6249 18.178 21.8825 17.375 18.9718C17.1439 18.1346 16.75 12.9777 16.75 12.281C16.75 8.79188 19.7658 9.88837 21.627 11.3055H21.6272Z" fill="black"/>
<path opacity="0.5" d="M21.6272 51.3055C24.2067 53.2695 26.9814 57.2516 28.0001 59.3887C29.0188 57.2518 31.7933 53.2694 34.373 51.3055C36.2342 49.8884 39.25 48.7919 39.25 52.281C39.25 52.9778 38.8561 58.1347 38.625 58.9718C37.8219 61.8825 34.8953 62.6249 32.2921 62.1756C36.8425 62.961 38.0001 65.5626 35.5001 68.1642C30.7523 73.1051 28.6761 66.9245 28.1438 65.3408C28.0463 65.0505 28.0007 64.9146 28 65.0301C27.9993 64.9146 27.9537 65.0504 27.8562 65.3408C27.3242 66.9245 25.248 73.1053 20.4999 68.1642C17.9999 65.5626 19.1574 62.9608 23.7079 62.1756C21.1046 62.6249 18.178 61.8825 17.375 58.9718C17.1439 58.1346 16.75 52.9777 16.75 52.281C16.75 48.7919 19.7658 49.8884 21.627 51.3055H21.6272Z" fill="black"/>
</svg>
