<svg width="56" height="80" viewBox="0 0 56 80" fill="none" xmlns="http://www.w3.org/2000/svg">
<path d="M34.9014 9.34375H38.5816L30.5415 18.533L40 31.0375H32.5941L26.7935 23.4536L20.1563 31.0375H16.4739L25.0736 21.2086L16 9.34375H23.5939L28.8372 16.2757L34.9014 9.34375ZM33.6098 28.8348H35.649L22.4859 11.4308H20.2976L33.6098 28.8348Z" fill="black"/>
<path opacity="0.5" d="M34.9014 49.3438H38.5816L30.5415 58.533L40 71.0375H32.5941L26.7935 63.4536L20.1563 71.0375H16.4739L25.0736 61.2086L16 49.3438H23.5939L28.8372 56.2757L34.9014 49.3438ZM33.6098 68.8348H35.649L22.4859 51.4308H20.2976L33.6098 68.8348Z" fill="black"/>
</svg>
