<svg width="56" height="80" viewBox="0 0 56 80" fill="none" xmlns="http://www.w3.org/2000/svg">
<g clip-path="url(#clip0_6591_35838)">
<path d="M38.2234 8H17.7719C16.7922 8 16 8.77344 16 9.72969V30.2656C16 31.2219 16.7922 32 17.7719 32H38.2234C39.2031 32 40 31.2219 40 30.2703V9.72969C40 8.77344 39.2031 8 38.2234 8ZM23.1203 28.4516H19.5578V16.9953H23.1203V28.4516ZM21.3391 15.4344C20.1953 15.4344 19.2719 14.5109 19.2719 13.3719C19.2719 12.2328 20.1953 11.3094 21.3391 11.3094C22.4781 11.3094 23.4016 12.2328 23.4016 13.3719C23.4016 14.5062 22.4781 15.4344 21.3391 15.4344ZM36.4516 28.4516H32.8937V22.8828C32.8937 21.5562 32.8703 19.8453 31.0422 19.8453C29.1906 19.8453 28.9094 21.2937 28.9094 22.7891V28.4516H25.3563V16.9953H28.7687V18.5609H28.8156C29.2891 17.6609 30.4516 16.7094 32.1813 16.7094C35.7859 16.7094 36.4516 19.0813 36.4516 22.1656V28.4516Z" fill="black"/>
</g>
<g clip-path="url(#clip1_6591_35838)">
<path opacity="0.5" d="M38.2234 48H17.7719C16.7922 48 16 48.7734 16 49.7297V70.2656C16 71.2219 16.7922 72 17.7719 72H38.2234C39.2031 72 40 71.2219 40 70.2703V49.7297C40 48.7734 39.2031 48 38.2234 48ZM23.1203 68.4516H19.5578V56.9953H23.1203V68.4516ZM21.3391 55.4344C20.1953 55.4344 19.2719 54.5109 19.2719 53.3719C19.2719 52.2328 20.1953 51.3094 21.3391 51.3094C22.4781 51.3094 23.4016 52.2328 23.4016 53.3719C23.4016 54.5062 22.4781 55.4344 21.3391 55.4344ZM36.4516 68.4516H32.8937V62.8828C32.8937 61.5562 32.8703 59.8453 31.0422 59.8453C29.1906 59.8453 28.9094 61.2937 28.9094 62.7891V68.4516H25.3563V56.9953H28.7687V58.5609H28.8156C29.2891 57.6609 30.4516 56.7094 32.1813 56.7094C35.7859 56.7094 36.4516 59.0813 36.4516 62.1656V68.4516Z" fill="black"/>
</g>
<defs>
<clipPath id="clip0_6591_35838">
<rect width="24" height="24" fill="white" transform="translate(16 8)"/>
</clipPath>
<clipPath id="clip1_6591_35838">
<rect width="24" height="24" fill="white" transform="translate(16 48)"/>
</clipPath>
</defs>
</svg>
