<svg width="257" height="54" viewBox="0 0 257 54" fill="none" xmlns="http://www.w3.org/2000/svg">
<g clip-path="url(#clip0_7106_29525)">
<path d="M214.987 17.6855C216.45 17.4077 216.869 16.9227 216.869 16.0269C216.869 14.9198 215.406 12.9131 211.987 12.9131C210.54 12.9131 208.959 13.2378 207.363 13.8324C206.213 15.7843 205.306 17.8967 204.688 20.1264C206.675 19.4458 208.944 18.8668 211.502 18.3818L214.991 17.6894L214.987 17.6855Z" fill="white"/>
<path d="M243.527 47.5906H234.397L251.253 10.7612C246.375 4.65495 238.833 0.739258 230.368 0.739258C225.721 0.739258 221.352 1.92062 217.549 3.99386C224.739 5.33951 228.874 9.86153 228.874 16.5781V31.9357C228.874 33.387 229.711 34.2202 231.244 34.2202C232.011 34.2202 232.707 34.0129 233.478 33.6686L235.5 41.3474C233.756 42.4545 231.244 43.006 228.315 43.006C222.944 43.006 219.247 40.8624 217.85 37.0562C215.636 40.1074 212.589 42.0789 208.932 42.8183C213.782 49.3314 221.578 53.5561 230.368 53.5561C245.076 53.5561 257 41.7347 257 27.1477C257 24.7419 256.675 22.4144 256.065 20.2004L243.527 47.5946V47.5906Z" fill="white"/>
<path d="M217.151 31.0363V23.9795C216.662 24.4646 215.406 25.0865 213.591 25.4308C208.08 26.4674 205.568 28.0595 205.568 30.8955C205.568 33.18 207.172 34.3535 209.824 34.3535C212.477 34.3535 214.918 33.2465 217.151 31.0324" fill="white"/>
<path d="M10.2293 34.5653C9.00883 36.2591 7.19767 37.1822 4.99534 37.1822C1.93242 37.1822 0 35.3672 0 32.5429C0 29.3626 2.40966 27.4576 7.52235 26.4796L9.00883 26.1823C9.63471 26.065 9.81074 25.885 9.81074 25.529C9.81074 25.0518 9.18486 24.1912 7.72968 24.1912C6.27449 24.1912 4.34208 25.0244 2.91428 26.3896L0.238619 23.358C2.31969 21.2457 4.96405 20.1777 8.05827 20.1777C12.369 20.1777 14.9274 22.2901 14.9274 25.7677V32.3668C14.9274 32.9927 15.2833 33.3487 15.9366 33.3487C16.2652 33.3487 16.6485 33.2587 17.0084 33.1101L17.6343 36.529C16.8911 36.9162 15.7919 37.1236 14.6926 37.1236C12.4043 37.1236 10.8278 36.2004 10.2332 34.5653H10.2293ZM6.8065 33.4035C7.937 33.4035 8.97753 32.9262 9.9281 31.9757V28.944C9.72077 29.2726 9.09489 29.4487 8.41033 29.5699C6.06326 30.0159 4.99143 30.7004 4.99143 31.917C4.99143 32.8988 5.67599 33.4035 6.8065 33.4035Z" fill="white"/>
<path d="M18.4912 14.8223H23.4866V36.8808H18.4912V14.8223Z" fill="white"/>
<path d="M24.5264 14.8223H29.5217V36.8808H24.5264V14.8223Z" fill="white"/>
<path d="M30.2656 28.678C30.2656 23.5653 33.6532 20.1738 38.6799 20.1738C43.7065 20.1738 46.7381 23.3854 46.7381 28.3182V29.9533H35.4409C35.7969 32.0343 37.1347 33.2822 39.1884 33.2822C40.8235 33.2822 42.31 32.5703 43.4092 31.1112L46.4995 33.7555C44.8331 36.0165 42.3374 37.1744 39.1258 37.1744C33.7432 37.1744 30.2656 33.7868 30.2656 28.6702V28.678ZM41.9188 26.6869C41.5316 24.9618 40.3737 23.9526 38.6799 23.9526C36.9861 23.9526 35.8556 24.9618 35.4683 26.6869H41.9188Z" fill="white"/>
<path d="M55.8604 24.1873C54.6713 24.1873 53.5134 24.7232 52.5002 25.7325V36.881H47.5049V20.4711H52.4415V22.7908C53.7794 21.0657 55.6218 20.1738 57.8242 20.1738C61.1257 20.1738 63.0268 22.2549 63.0268 25.7638V36.885H58.0315V26.3584C58.0315 24.9892 57.2296 24.1873 55.8604 24.1873Z" fill="white"/>
<path d="M66.207 16.4258C66.207 14.7907 67.3962 13.6328 69.0626 13.6328C70.729 13.6328 71.9182 14.7907 71.9182 16.4258C71.9182 18.0609 70.729 19.2188 69.0626 19.2188C67.3962 19.2188 66.207 18.0609 66.207 16.4258ZM66.563 20.4706H71.5583V36.8805H66.563V20.4706Z" fill="white"/>
<path d="M80.9542 24.1873C79.765 24.1873 78.6071 24.7232 77.594 25.7325V36.881H72.5986V20.4711H77.5353V22.7908C78.8731 21.0657 80.7156 20.1738 82.9179 20.1738C86.2195 20.1738 88.1206 22.2549 88.1206 25.7638V36.885H83.1252V26.3584C83.1252 24.9892 82.3233 24.1873 80.9542 24.1873Z" fill="white"/>
<path d="M88.3242 33.8807L91.4458 31.2363C92.4864 32.6328 93.8829 33.2861 95.7879 33.2861C97.4543 33.2861 98.4948 32.8089 98.4948 32.1282C98.4948 31.6823 98.0176 31.475 96.4138 31.1777L94.54 30.8217C90.7339 30.1097 88.9227 28.4433 88.9227 25.6777C88.9227 22.3175 91.7157 20.1777 96.0304 20.1777C99.1833 20.1777 101.62 21.2496 103.076 23.2407L100.071 25.799C99.2107 24.6411 97.7516 23.9565 96.0265 23.9565C94.6574 23.9565 93.7381 24.4025 93.7381 25.0557C93.7381 25.5916 94.2427 25.8889 95.7292 26.1549L97.603 26.5109C101.675 27.2854 103.432 28.7993 103.432 31.5062C103.432 34.9838 100.459 37.1862 95.8505 37.1862C92.5489 37.1862 89.9046 36.0283 88.3281 33.8846L88.3242 33.8807Z" fill="white"/>
<path d="M105.986 31.799V24.2493H103.044V20.4744H106.224L107.323 15.7764H110.981V20.4744H115.769V24.2493H110.981V31.0597C110.981 32.3975 111.755 33.1721 113.093 33.1721C113.927 33.1721 114.967 32.9334 115.71 32.5775L116.661 36.145C115.562 36.7983 113.895 37.1855 112.111 37.1855C108.247 37.1855 105.986 35.1631 105.986 31.8029V31.799Z" fill="white"/>
<path d="M116.806 16.4258C116.806 14.7907 117.995 13.6328 119.661 13.6328C121.328 13.6328 122.517 14.7907 122.517 16.4258C122.517 18.0609 121.328 19.2188 119.661 19.2188C117.995 19.2188 116.806 18.0609 116.806 16.4258ZM117.162 20.4706H122.157V36.8805H117.162V20.4706Z" fill="white"/>
<path d="M125.905 31.799V24.2493H122.963V20.4744H126.143L127.242 15.7764H130.9V20.4744H135.688V24.2493H130.9V31.0597C130.9 32.3975 131.674 33.1721 133.012 33.1721C133.845 33.1721 134.886 32.9334 135.629 32.5775L136.58 36.145C135.481 36.7983 133.814 37.1855 132.03 37.1855C128.166 37.1855 125.905 35.1631 125.905 31.8029V31.799Z" fill="white"/>
<path d="M143.532 33.1644C144.721 33.1644 145.879 32.6285 146.892 31.6193V20.4707H151.887V36.8806H146.951V34.5609C145.613 36.286 143.77 37.1779 141.568 37.1779C138.266 37.1779 136.365 35.0969 136.365 31.588V20.4668H141.361V30.9934C141.361 32.3625 142.162 33.1644 143.532 33.1644Z" fill="white"/>
<path d="M155.63 31.799V24.2493H152.688V20.4744H155.869L156.968 15.7764H160.625V20.4744H165.413V24.2493H160.625V31.0597C160.625 32.3975 161.4 33.1721 162.738 33.1721C163.571 33.1721 164.612 32.9334 165.355 32.5775L166.305 36.145C165.206 36.7983 163.54 37.1855 161.756 37.1855C157.891 37.1855 155.63 35.1631 155.63 31.8029V31.799Z" fill="white"/>
<path d="M165.711 28.678C165.711 23.5653 169.099 20.1738 174.125 20.1738C179.152 20.1738 182.183 23.3854 182.183 28.3182V29.9533H170.886C171.242 32.0343 172.58 33.2822 174.634 33.2822C176.269 33.2822 177.755 32.5703 178.855 31.1112L181.945 33.7555C180.278 36.0165 177.783 37.1744 174.571 37.1744C169.189 37.1744 165.711 33.7868 165.711 28.6702V28.678ZM177.364 26.6869C176.977 24.9618 175.819 23.9526 174.121 23.9526C172.424 23.9526 171.297 24.9618 170.91 26.6869H177.36H177.364Z" fill="white"/>
<path d="M193.211 12.1465H198.444L185.602 40.5108H180.368L193.211 12.1465Z" fill="white"/>
</g>
<defs>
<clipPath id="clip0_7106_29525">
<rect width="257" height="54" fill="white"/>
</clipPath>
</defs>
</svg>
