<svg width="24" height="24" viewBox="0 0 24 24" fill="none" xmlns="http://www.w3.org/2000/svg">
<path d="M11 22V13.725C10.7 13.5417 10.4583 13.3042 10.275 13.0125C10.0917 12.7208 10 12.3833 10 12C10 11.45 10.1958 10.9792 10.5875 10.5875C10.9792 10.1958 11.45 10 12 10C12.55 10 13.0208 10.1958 13.4125 10.5875C13.8042 10.9792 14 11.45 14 12C14 12.3833 13.9083 12.725 13.725 13.025C13.5417 13.325 13.3 13.5583 13 13.725V22H11ZM5.1 19.25C4.15 18.3333 3.39583 17.2542 2.8375 16.0125C2.27917 14.7708 2 13.4333 2 12C2 10.6167 2.2625 9.31667 2.7875 8.1C3.3125 6.88333 4.025 5.825 4.925 4.925C5.825 4.025 6.88333 3.3125 8.1 2.7875C9.31667 2.2625 10.6167 2 12 2C13.3833 2 14.6833 2.2625 15.9 2.7875C17.1167 3.3125 18.175 4.025 19.075 4.925C19.975 5.825 20.6875 6.88333 21.2125 8.1C21.7375 9.31667 22 10.6167 22 12C22 13.4333 21.7208 14.775 21.1625 16.025C20.6042 17.275 19.85 18.35 18.9 19.25L17.5 17.85C18.2667 17.1167 18.875 16.2458 19.325 15.2375C19.775 14.2292 20 13.15 20 12C20 9.76667 19.225 7.875 17.675 6.325C16.125 4.775 14.2333 4 12 4C9.76667 4 7.875 4.775 6.325 6.325C4.775 7.875 4 9.76667 4 12C4 13.15 4.225 14.225 4.675 15.225C5.125 16.225 5.74167 17.0917 6.525 17.825L5.1 19.25ZM7.925 16.425C7.34167 15.875 6.875 15.2208 6.525 14.4625C6.175 13.7042 6 12.8833 6 12C6 10.3333 6.58333 8.91667 7.75 7.75C8.91667 6.58333 10.3333 6 12 6C13.6667 6 15.0833 6.58333 16.25 7.75C17.4167 8.91667 18 10.3333 18 12C18 12.8833 17.825 13.7083 17.475 14.475C17.125 15.2417 16.6583 15.8917 16.075 16.425L14.65 15C15.0667 14.6167 15.3958 14.1667 15.6375 13.65C15.8792 13.1333 16 12.5833 16 12C16 10.9 15.6083 9.95833 14.825 9.175C14.0417 8.39167 13.1 8 12 8C10.9 8 9.95833 8.39167 9.175 9.175C8.39167 9.95833 8 10.9 8 12C8 12.6 8.12083 13.1542 8.3625 13.6625C8.60417 14.1708 8.93333 14.6167 9.35 15L7.925 16.425Z" fill="#1F1F1F"/>
</svg>
