<svg width="56" height="80" viewBox="0 0 56 80" fill="none" xmlns="http://www.w3.org/2000/svg">
<path d="M39.7609 15.1998C39.7609 15.1998 39.5266 13.5451 38.8047 12.8186C37.8906 11.8623 36.8688 11.8576 36.4 11.8014C33.0438 11.5576 28.0047 11.5576 28.0047 11.5576H27.9953C27.9953 11.5576 22.9562 11.5576 19.6 11.8014C19.1313 11.8576 18.1094 11.8623 17.1953 12.8186C16.4734 13.5451 16.2437 15.1998 16.2437 15.1998C16.2437 15.1998 16 17.1451 16 19.0857V20.9045C16 22.8451 16.2391 24.7904 16.2391 24.7904C16.2391 24.7904 16.4734 26.4451 17.1906 27.1717C18.1047 28.1279 19.3047 28.0951 19.8391 28.1982C21.7609 28.3811 28 28.4373 28 28.4373C28 28.4373 33.0438 28.4279 36.4 28.1889C36.8688 28.1326 37.8906 28.1279 38.8047 27.1717C39.5266 26.4451 39.7609 24.7904 39.7609 24.7904C39.7609 24.7904 40 22.8498 40 20.9045V19.0857C40 17.1451 39.7609 15.1998 39.7609 15.1998ZM25.5203 23.1123V16.367L32.0031 19.7514L25.5203 23.1123Z" fill="white"/>
<g opacity="0.5">
<path d="M39.7609 55.1998C39.7609 55.1998 39.5266 53.5451 38.8047 52.8186C37.8906 51.8623 36.8688 51.8576 36.4 51.8014C33.0438 51.5576 28.0047 51.5576 28.0047 51.5576H27.9953C27.9953 51.5576 22.9562 51.5576 19.6 51.8014C19.1313 51.8576 18.1094 51.8623 17.1953 52.8186C16.4734 53.5451 16.2437 55.1998 16.2437 55.1998C16.2437 55.1998 16 57.1451 16 59.0857V60.9045C16 62.8451 16.2391 64.7904 16.2391 64.7904C16.2391 64.7904 16.4734 66.4451 17.1906 67.1717C18.1047 68.1279 19.3047 68.0951 19.8391 68.1982C21.7609 68.3811 28 68.4373 28 68.4373C28 68.4373 33.0438 68.4279 36.4 68.1889C36.8688 68.1326 37.8906 68.1279 38.8047 67.1717C39.5266 66.4451 39.7609 64.7904 39.7609 64.7904C39.7609 64.7904 40 62.8498 40 60.9045V59.0857C40 57.1451 39.7609 55.1998 39.7609 55.1998ZM25.5203 63.1123V56.367L32.0031 59.7514L25.5203 63.1123Z" fill="white"/>
</g>
</svg>
