<svg width="274" height="66" viewBox="0 0 274 66" fill="none" xmlns="http://www.w3.org/2000/svg">
<path d="M259.634 57.594H249.882L268.031 17.5995C262.833 10.9113 254.71 6.60547 245.584 6.60547C242.141 6.60547 238.841 7.21999 235.786 8.3396C241.438 10.7051 244.923 15.3182 244.923 21.1351V40.5389C244.923 42.1341 245.597 42.9759 246.855 42.9759C247.613 42.9759 248.451 42.7234 249.461 42.1341L251.898 50.7837C249.713 52.1264 247.192 52.7999 244.254 52.7999C237.953 52.7999 233.42 49.9461 232.157 45.1562C229.607 48.4435 226.37 50.809 222.805 52.0044C227.986 58.9409 236.261 63.432 245.584 63.432C261.276 63.432 274 50.7122 274 35.0166C274 32.5627 273.688 30.1846 273.103 27.9117L259.634 57.594ZM222.919 43.0559C219.812 43.0559 217.712 41.2081 217.712 38.5185C217.712 35.829 219.391 33.897 223.003 32.6385L229.889 30.1173C230.646 29.8647 231.147 29.4438 231.484 28.9429V38.5185C229.468 41.3765 226.362 43.0559 222.914 43.0559M229.889 21.5518C231.063 21.1309 231.4 20.4617 230.979 19.2832C230.057 17.4354 227.957 16.5094 225.015 16.5094C224.669 16.5094 224.324 16.5262 223.983 16.5515C221.753 19.1569 219.989 22.1706 218.815 25.4621L229.889 21.5476V21.5518Z" fill="#CAD51D"/>
<path d="M186.533 36.435C186.172 34.2607 184.92 32.9761 183.108 32.9761C181.295 32.9761 180.077 34.294 179.682 36.435H186.533ZM174.348 38.3141C174.348 33.0426 178.036 29.2262 183.174 29.2262C188.313 29.2262 191.738 33.1466 191.738 38.7755V39.6652H179.849C180.277 42.1014 181.823 43.5523 184.064 43.5523C185.81 43.5523 187.456 42.6959 188.741 41.1826L191.705 43.8183C189.797 46.1547 187.128 47.4102 183.898 47.4102C178.298 47.4102 174.348 43.6562 174.348 38.3224M170.428 47.4019C166.379 47.4019 164.105 45.2609 164.105 41.3406V33.4376H161.374V29.5505H164.105V24.4786H169.376V29.5505H174.215V33.4376H169.376V40.9124C169.376 42.4922 170.066 43.282 171.351 43.282C172.307 43.282 173.359 42.9536 174.348 42.3591L175.6 45.8513C174.282 46.8407 172.469 47.3978 170.428 47.3978M152.086 43.2862C153.337 43.2862 154.522 42.5961 155.412 41.3447V29.5547H160.679V47.0735H155.541V44.2424C153.961 46.2171 151.887 47.4061 149.812 47.4061C146.815 47.4061 144.607 45.0364 144.607 41.7729V29.5547H149.874V40.9165C149.874 42.3342 150.764 43.2862 152.082 43.2862M139.502 47.4019C135.453 47.4019 133.179 45.2609 133.179 41.3406V33.4376H130.447V29.5505H133.179V24.4786H138.45V29.5505H143.289V33.4376H138.45V40.9124C138.45 42.4922 139.14 43.282 140.425 43.282C141.381 43.282 142.433 42.9536 143.422 42.3591L144.674 45.8513C143.356 46.8407 141.547 47.3978 139.502 47.3978M124.486 29.5547H129.753V47.0735H124.486V29.5547ZM127.122 22.5039C128.768 22.5039 130.019 23.722 130.019 25.3018C130.019 26.8815 128.768 28.0996 127.122 28.0996C125.475 28.0996 124.224 26.8815 124.224 25.3018C124.224 23.722 125.475 22.5039 127.122 22.5039ZM118.558 47.4019C114.508 47.4019 112.234 45.2609 112.234 41.3406V33.4376H109.499V29.5505H112.234V24.4786H117.502V29.5505H122.345V33.4376H117.502V40.9124C117.502 42.4922 118.192 43.282 119.476 43.282C120.433 43.282 121.484 42.9536 122.474 42.3591L123.725 45.8513C122.407 46.8407 120.595 47.3978 118.553 47.3978M93.4975 43.9805L95.9336 41.0496C97.7795 42.7624 99.7542 43.6188 101.795 43.6188C103.309 43.6188 104.365 43.0575 104.365 42.2011C104.365 41.4778 103.675 40.9831 102.028 40.5881L100.611 40.2264C96.0999 39.0416 94.2208 37.4618 94.2208 34.7263C94.2208 31.5626 97.1517 29.2262 101.267 29.2262C104.099 29.2262 107.029 30.278 109.237 32.0241L107.063 35.0215C105.184 33.6704 103.109 32.9138 101.267 32.9138C99.9496 32.9138 99.0932 33.342 99.0932 33.9697C99.0932 34.5642 99.8165 34.8926 101.529 35.3541L102.947 35.7158C107.458 36.8341 109.37 38.5136 109.37 41.3156C109.37 44.841 106.177 47.4102 101.795 47.4102C98.6982 47.4102 95.8006 46.2254 93.4975 43.9846M85.3284 33.342C84.077 33.342 82.8922 34.0321 82.0026 35.2834V47.0735H76.7353V29.5547H81.8737V32.3858C83.4535 30.4111 85.5279 29.2221 87.6066 29.2221C90.604 29.2221 92.8115 31.5917 92.8115 34.8552V47.0735H87.5442V35.7116C87.5442 34.294 86.6546 33.342 85.3367 33.342M70.4785 29.5547H75.7458V47.0735H70.4785V29.5547ZM73.1101 22.5039C74.7564 22.5039 76.0077 23.722 76.0077 25.3018C76.0077 26.8815 74.7564 28.0996 73.1101 28.0996C71.4638 28.0996 70.2125 26.8815 70.2125 25.3018C70.2125 23.722 71.4638 22.5039 73.1101 22.5039ZM58.0607 33.342C56.8094 33.342 55.6245 34.0321 54.7349 35.2834V47.0735H49.4676V29.5547H54.606V32.3858C56.1858 30.4111 58.2603 29.2221 60.3348 29.2221C63.3322 29.2221 65.5397 31.5917 65.5397 34.8552V47.0735H60.2724V35.7116C60.2724 34.294 59.3827 33.342 58.0649 33.342M43.6682 36.435C43.3065 34.2607 42.0552 32.9761 40.2426 32.9761C38.43 32.9761 37.2119 34.294 36.817 36.435H43.6682ZM31.4832 38.3141C31.4832 33.0426 35.1707 29.2262 40.3091 29.2262C45.4475 29.2262 48.8731 33.1466 48.8731 38.7755V39.6652H36.9833C37.4115 42.1014 38.958 43.5523 41.1987 43.5523C42.9448 43.5523 44.5911 42.6959 45.8757 41.1826L48.8399 43.8183C46.9317 46.1547 44.2627 47.4102 41.0325 47.4102C35.4326 47.4102 31.4832 43.6562 31.4832 38.3224M25.6879 23.1649H30.9552V47.0735H25.6879V23.1649ZM19.4312 23.1649H24.6985V47.0735H19.4312V23.1649ZM7.31267 43.519C8.66379 43.519 9.88188 42.8622 10.6718 41.7397V37.9857C10.5387 38.181 10.3433 38.3473 10.044 38.4471L7.34177 39.4366C5.92414 39.9313 5.26729 40.6546 5.26729 41.7438C5.26729 42.8331 6.09043 43.5232 7.30852 43.5232M15.6771 47.3354C13.2077 47.3354 11.4284 46.2171 10.9337 44.338C9.45368 46.2504 7.37919 47.3687 5.17167 47.3687C2.20752 47.3687 0.0665166 45.2942 0.0665166 42.3965C0.0665166 39.4989 1.94561 37.9482 5.10515 36.8299L10.044 35.0839C10.5055 34.9176 10.6385 34.6557 10.4722 34.1942C10.1105 33.4708 9.28739 33.1092 8.13582 33.1092C6.25672 33.1092 4.4483 34.0986 2.96415 35.8738L0 33.238C2.10775 30.7353 5.26729 29.2221 8.69289 29.2221C12.9749 29.2221 15.9391 31.5585 15.9391 34.9176V42.5254C15.9391 43.1532 16.201 43.4816 16.6957 43.4816C16.9908 43.4816 17.3234 43.3818 17.7184 43.1532L18.6745 46.5455C17.8181 47.0735 16.8287 47.3354 15.6771 47.3354Z" fill="white"/>
<path d="M203.261 20.457H208.104L194.207 51.088H189.363L203.261 20.457Z" fill="white"/>
</svg>
