<svg width="56" height="80" viewBox="0 0 56 80" fill="none" xmlns="http://www.w3.org/2000/svg">
<g clip-path="url(#clip0_6591_35844)">
<path d="M40 20C40 13.3726 34.6274 8 28 8C21.3726 8 16 13.3726 16 20C16 25.9895 20.3882 30.954 26.125 31.8542V23.4688H23.0781V20H26.125V17.3563C26.125 14.3488 27.9166 12.6875 30.6576 12.6875C31.9701 12.6875 33.3438 12.9219 33.3438 12.9219V15.875H31.8306C30.34 15.875 29.875 16.8001 29.875 17.75V20H33.2031L32.6711 23.4688H29.875V31.8542C35.6118 30.954 40 25.9895 40 20Z" fill="white"/>
</g>
<g clip-path="url(#clip1_6591_35844)">
<path opacity="0.5" d="M40 60C40 53.3726 34.6274 48 28 48C21.3726 48 16 53.3726 16 60C16 65.9895 20.3882 70.954 26.125 71.8542V63.4688H23.0781V60H26.125V57.3563C26.125 54.3488 27.9166 52.6875 30.6576 52.6875C31.9701 52.6875 33.3438 52.9219 33.3438 52.9219V55.875H31.8306C30.34 55.875 29.875 56.8001 29.875 57.75V60H33.2031L32.6711 63.4688H29.875V71.8542C35.6118 70.954 40 65.9895 40 60Z" fill="white"/>
</g>
<defs>
<clipPath id="clip0_6591_35844">
<rect width="24" height="24" fill="white" transform="translate(16 8)"/>
</clipPath>
<clipPath id="clip1_6591_35844">
<rect width="24" height="24" fill="white" transform="translate(16 48)"/>
</clipPath>
</defs>
</svg>
