<svg width="123" height="392" viewBox="0 0 123 392" fill="none" xmlns="http://www.w3.org/2000/svg">
<g clip-path="url(#clip0_7106_23162)">
<path d="M24.5826 39.9203C28.0225 39.2673 29.0067 38.1268 29.0067 36.0205C29.0067 33.4176 25.5668 28.6992 17.528 28.6992C14.1249 28.6992 10.4091 29.4626 6.65642 30.8607C3.95231 35.4503 1.81846 40.417 0.365234 45.6597C5.03763 44.0593 10.3723 42.698 16.3875 41.5575L24.5918 39.9295L24.5826 39.9203Z" fill="#CDE706"/>
<path d="M91.6877 110.236H70.2204L109.853 23.6405C98.3835 9.28301 80.6505 0.0761719 60.7468 0.0761719C49.82 0.0761719 39.5462 2.85386 30.6061 7.72861C47.5114 10.8926 57.2333 21.5251 57.2333 37.3174V73.4273C57.2333 76.8397 59.2016 78.7896 62.8071 78.7896C64.6098 78.7896 66.247 78.3021 68.0589 77.4927L72.8141 95.5477C68.712 98.1506 62.8071 99.4474 55.918 99.4474C43.2897 99.4474 34.5979 94.4071 31.3144 85.4578C26.1085 92.632 18.9435 97.2676 10.3438 99.006C21.7488 114.32 40.0797 124.253 60.7468 124.253C95.3299 124.253 123.364 96.4582 123.364 62.1602C123.364 56.5037 122.601 51.0311 121.166 45.8252L91.6877 110.236Z" fill="#CDE706"/>
<path d="M29.6688 71.3123V54.7197C28.5191 55.8602 25.5666 57.3227 21.2989 58.132C8.33945 60.5694 2.43457 64.3129 2.43457 70.9811C2.43457 76.3526 6.2056 79.1119 12.4416 79.1119C18.6776 79.1119 24.4169 76.5089 29.6688 71.3031" fill="#CDE706"/>
<path d="M80.5684 378.605C82.7207 380.15 83.8888 382.45 83.8888 385.246C83.8888 389.127 81.5894 391.583 78.0023 391.583C73.9645 391.583 71.5547 388.529 70.3131 382.045L69.936 380.16C69.7888 379.369 69.5589 379.139 69.1082 379.139C68.5011 379.139 67.4158 379.93 67.4158 381.778C67.4158 383.627 68.4735 386.074 70.2027 387.886L66.3581 391.28C63.6816 388.64 62.3203 385.283 62.3203 381.364C62.3203 375.901 64.9968 372.654 69.4117 372.654H77.7815C78.5725 372.654 79.0232 372.204 79.0232 371.376C79.0232 370.962 78.9129 370.474 78.7197 370.015L83.0518 369.224C83.5393 370.171 83.806 371.56 83.806 372.958C83.806 375.864 82.6379 377.86 80.5592 378.614L80.5684 378.605ZM79.0968 382.946C79.0968 381.512 78.4898 380.196 77.2849 378.982H73.4403C73.8541 379.249 74.0841 380.04 74.2312 380.905C74.8015 383.885 75.6661 385.237 77.2113 385.237C78.453 385.237 79.0968 384.372 79.0968 382.937V382.946Z" fill="white"/>
<path d="M55.5332 368.12V361.783H83.5124V368.12H55.5332Z" fill="white"/>
<path d="M55.5332 360.468V354.131H83.5124V360.468H55.5332Z" fill="white"/>
<path d="M73.0994 353.229C66.615 353.229 62.3105 348.933 62.3105 342.559C62.3105 336.185 66.3851 332.341 72.6395 332.341H74.7182V346.671C77.3579 346.22 78.9399 344.518 78.9399 341.916C78.9399 339.846 78.0385 337.961 76.1898 336.563L79.5469 332.644C82.4166 334.76 83.879 337.924 83.879 341.998C83.879 348.823 79.5837 353.238 73.0902 353.238L73.0994 353.229ZM70.5792 338.448C68.3902 338.936 67.1117 340.407 67.1117 342.559C67.1117 344.712 68.3902 346.137 70.5792 346.634V338.448Z" fill="white"/>
<path d="M67.4066 320.761C67.4066 322.27 68.0872 323.741 69.3657 325.02H83.5117V331.357H62.6974V325.093H65.6407C63.4516 323.401 62.3203 321.055 62.3203 318.269C62.3203 314.084 64.96 311.674 69.4117 311.674H83.5117V318.011H70.1659C68.4275 318.011 67.4158 319.032 67.4158 320.761H67.4066Z" fill="white"/>
<path d="M57.5645 307.453C55.4951 307.453 54.0234 305.944 54.0234 303.829C54.0234 301.713 55.4951 300.205 57.5645 300.205C59.634 300.205 61.1056 301.713 61.1056 303.829C61.1056 305.944 59.634 307.453 57.5645 307.453ZM62.6968 306.993V300.656H83.5111V306.993H62.6968Z" fill="white"/>
<path d="M67.4066 288.782C67.4066 290.29 68.0872 291.762 69.3657 293.04H83.5117V299.377H62.6974V293.114H65.6407C63.4516 291.421 62.3203 289.076 62.3203 286.289C62.3203 282.104 64.96 279.694 69.4117 279.694H83.5117V286.031H70.1659C68.4275 286.031 67.4158 287.052 67.4158 288.782H67.4066Z" fill="white"/>
<path d="M79.7034 279.427L76.3463 275.472C78.1214 274.148 78.9492 272.382 78.9492 269.963C78.9492 267.847 78.3422 266.532 77.4776 266.532C76.9165 266.532 76.6498 267.139 76.2727 269.172L75.822 271.545C74.9207 276.374 72.8052 278.673 69.3009 278.673C65.0424 278.673 62.3291 275.132 62.3291 269.659C62.3291 265.658 63.6903 262.568 66.2105 260.719L69.4573 264.527C67.9856 265.622 67.1211 267.47 67.1211 269.659C67.1211 271.398 67.6913 272.566 68.5191 272.566C69.1997 272.566 69.5768 271.922 69.9172 270.036L70.3678 267.663C71.352 262.494 73.2743 260.269 76.705 260.269C81.1199 260.269 83.9068 264.04 83.9068 269.889C83.9068 274.074 82.4351 277.431 79.7218 279.427H79.7034Z" fill="white"/>
<path d="M77.0641 257.031H67.4893V260.765H62.6974V256.728L56.7373 255.33V250.694H62.6974V244.624H67.4893V250.694H76.1259C77.8183 250.694 78.8024 249.71 78.8024 248.017C78.8024 246.96 78.4989 245.644 78.0482 244.697L82.5735 243.492C83.4013 244.89 83.8979 246.997 83.8979 249.259C83.8979 254.161 81.3318 257.031 77.0733 257.031H77.0641Z" fill="white"/>
<path d="M57.5645 243.308C55.4951 243.308 54.0234 241.8 54.0234 239.684C54.0234 237.569 55.4951 236.061 57.5645 236.061C59.634 236.061 61.1056 237.569 61.1056 239.684C61.1056 241.8 59.634 243.308 57.5645 243.308ZM62.6968 242.848V236.511H83.5111V242.848H62.6968Z" fill="white"/>
<path d="M77.0641 231.765H67.4893V235.5H62.6974V231.462L56.7373 230.064V225.428H62.6974V219.358H67.4893V225.428H76.1259C77.8183 225.428 78.8024 224.444 78.8024 222.752C78.8024 221.694 78.4989 220.379 78.0482 219.431L82.5735 218.227C83.4013 219.625 83.8979 221.731 83.8979 223.993C83.8979 228.896 81.3318 231.765 77.0733 231.765H77.0641Z" fill="white"/>
<path d="M78.8033 209.405C78.8033 207.897 78.1227 206.425 76.8442 205.147H62.6982V198.81H83.5125V205.073H80.5693C82.7583 206.775 83.8896 209.111 83.8896 211.898C83.8896 216.083 81.2499 218.502 76.7982 218.502H62.6982V212.165H76.044C77.7824 212.165 78.7941 211.144 78.7941 209.414L78.8033 209.405Z" fill="white"/>
<path d="M77.0641 194.056H67.4893V197.79H62.6974V193.752L56.7373 192.354V187.718H62.6974V181.648H67.4893V187.718H76.1259C77.8183 187.718 78.8024 186.734 78.8024 185.042C78.8024 183.984 78.4989 182.669 78.0482 181.722L82.5735 180.517C83.4013 181.915 83.8979 184.021 83.8979 186.284C83.8979 191.186 81.3318 194.056 77.0733 194.056H77.0641Z" fill="white"/>
<path d="M73.0994 181.27C66.615 181.27 62.3105 176.974 62.3105 170.6C62.3105 164.226 66.3851 160.382 72.6395 160.382H74.7182V174.712C77.3579 174.261 78.9399 172.56 78.9399 169.957C78.9399 167.887 78.0385 166.002 76.1898 164.604L79.5469 160.685C82.4166 162.801 83.879 165.965 83.879 170.039C83.879 176.864 79.5837 181.279 73.0902 181.279L73.0994 181.27ZM70.5792 166.489C68.3902 166.977 67.1117 168.448 67.1117 170.6C67.1117 172.753 68.3902 174.178 70.5792 174.675V166.489Z" fill="white"/>
<path d="M52.1387 146.393V139.752L88.1106 156.041V162.682L52.1387 146.393Z" fill="white"/>
</g>
<defs>
<clipPath id="clip0_7106_23162">
<rect width="123" height="392" fill="white"/>
</clipPath>
</defs>
</svg>
