<svg width="24" height="24" viewBox="0 0 24 24" fill="none" xmlns="http://www.w3.org/2000/svg">
<g clip-path="url(#clip0_7413_18454)">
<path d="M6.3387 23.3671L9.30303 17.6725C7.50848 16.5315 6.22291 14.7425 5.71374 12.6778C5.20458 10.6131 5.51104 8.43156 6.56935 6.58703C7.62766 4.7425 9.35636 3.377 11.3958 2.77457C13.4353 2.17215 15.6285 2.37919 17.5192 3.35262C19.4099 4.32606 20.8525 5.99094 21.5469 8.00093C22.2414 10.0109 22.1342 12.2113 21.2476 14.1442C20.3611 16.0772 18.7635 17.5939 16.7871 18.379C14.8107 19.164 12.6078 19.1569 10.6365 18.359L7.67222 24.0536L6.3387 23.3671ZM20.1565 8.65729C19.7493 7.38587 18.9742 6.26375 17.9293 5.43283C16.8844 4.60191 15.6165 4.0995 14.2861 3.98913C12.9556 3.87877 11.6223 4.16541 10.4548 4.81281C9.28724 5.46021 8.33789 6.43929 7.72678 7.62623C7.11568 8.81318 6.87027 10.1547 7.02158 11.4811C7.1729 12.8075 7.71415 14.0593 8.57688 15.0781C9.43962 16.0969 10.5851 16.837 11.8685 17.2048C13.1518 17.5726 14.5154 17.5516 15.7868 17.1444C17.4906 16.5967 18.9074 15.3955 19.7266 13.8044C20.5458 12.2133 20.7004 10.3622 20.1565 8.65729Z" fill="white"/>
</g>
<defs>
<clipPath id="clip0_7413_18454">
<rect width="24" height="24" fill="white"/>
</clipPath>
</defs>
</svg>
