<svg width="24" height="24" viewBox="0 0 24 24" fill="none" xmlns="http://www.w3.org/2000/svg">
<path d="M6 17H18L14.925 12.9C14.7417 12.8667 14.5542 12.825 14.3625 12.775C14.1708 12.725 13.9833 12.6667 13.8 12.6L11.25 16L9 13L6 17ZM3 21V3H10V5H5V19H19V13.675L21 15.675V21H3ZM21.55 13.4L18.45 10.3C18.1 10.5333 17.725 10.7083 17.325 10.825C16.925 10.9417 16.5 11 16.05 11C14.8167 11 13.7667 10.5625 12.9 9.6875C12.0333 8.8125 11.6 7.75 11.6 6.5C11.6 5.25 12.0375 4.1875 12.9125 3.3125C13.7875 2.4375 14.85 2 16.1 2C17.35 2 18.4125 2.4375 19.2875 3.3125C20.1625 4.1875 20.6 5.25 20.6 6.5C20.6 6.95 20.5333 7.38333 20.4 7.8C20.2667 8.21667 20.1 8.6 19.9 8.95L22.95 12L21.55 13.4ZM16.1 9C16.8 9 17.3917 8.75833 17.875 8.275C18.3583 7.79167 18.6 7.2 18.6 6.5C18.6 5.8 18.3583 5.20833 17.875 4.725C17.3917 4.24167 16.8 4 16.1 4C15.4 4 14.8083 4.24167 14.325 4.725C13.8417 5.20833 13.6 5.8 13.6 6.5C13.6 7.2 13.8417 7.79167 14.325 8.275C14.8083 8.75833 15.4 9 16.1 9Z" fill="black"/>
</svg>
